<svg xmlns="http://www.w3.org/2000/svg" viewBox="0 0 111.53 23.21"><defs><style>.cls-1{fill:#04f;}</style></defs><title>logo_n_3</title><g id="Layer_2" data-name="Layer 2"><g id="trim_area" data-name="trim area"><polygon class="cls-1" points="10.77 2.4 10.77 2.4 10.77 17.19 13.18 17.19 13.18 2.4 17.99 2.4 17.99 0 10.77 0 8.37 0 5.96 0 5.96 2.4 8.37 2.4 10.77 2.4"/><path class="cls-1" d="M20.39,4.81H15.58V17.13a3.72,3.72,0,0,1-3.38,3.66,3.6,3.6,0,0,1-3.83-3.6h0V4.81H6v4.4L5.13,7.94,3,4.81H0L3.37,9.22,0,14.79H2.85L5,11.07l1,1.09v5H6a6,6,0,1,0,12-.08V12h2.4a3.61,3.61,0,0,0,0-7.22Zm0,4.81H18V7.22h2.37a1.22,1.22,0,0,1,1.22,1A1.21,1.21,0,0,1,20.39,9.62Z"/><path class="cls-1" d="M41.68,11.67H39.86V18H36V2h3.86V8.19h1.48L44.42,2h4.67l-4.4,7.38,5,8.62H45.08Z"/><path class="cls-1" d="M55.92,18H52.08V2h3.84Z"/><path class="cls-1" d="M65.47,11.67H63.65V18H59.79V2h3.86V8.19h1.48L68.21,2h4.67l-4.4,7.38,5,8.62H68.87Z"/><path class="cls-1" d="M88.44,5H83.63V18H79.78V5H75.06V2H88.44Z"/><path class="cls-1" d="M95.05,18H91.21V2h3.84Z"/><path class="cls-1" d="M102.79,12.57V18H98.93V2h6.39a7.42,7.42,0,0,1,3.24.68,5,5,0,0,1,2.19,1.92,5.21,5.21,0,0,1,.78,2.83,4.62,4.62,0,0,1-1.68,3.74,7,7,0,0,1-4.6,1.4Zm0-3h2.53A2.37,2.37,0,0,0,107,9a2.08,2.08,0,0,0,.58-1.58,2.58,2.58,0,0,0-.6-1.79A2.13,2.13,0,0,0,105.36,5h-2.57Z"/></g></g></svg>